<svg version="1.1" id="Layer_1" xmlns="http://www.w3.org/2000/svg" x="0" y="0" viewBox="0 0 512 512" xml:space="preserve"><path d="M478.3 183.8H300.8c-7.9-27.5-23.4-52.6-45.1-72-32.9-29.5-75.4-43-119.7-38.1C64.9 81.5 8 138.9.8 210c-4 38.8 6.7 77.3 29.9 108.1 22.3 29.6 54.2 50.1 90.2 57.8l37.8 37.8c3.2 3.2 7.4 4.9 11.7 4.9 2.1 0 4.3-.4 6.4-1.3 6.2-2.6 10.2-8.6 10.2-15.3v-26.5c6.2-1.4 12.3-3.2 18.2-5.3v1c0 18.6 15.1 33.7 33.7 33.7h56.5l30.1 30.1c2.7 2.7 6.3 4.1 9.9 4.1 1.8 0 3.6-.4 5.4-1.1 5.3-2.2 8.7-7.3 8.7-13v-20.2h128.8c18.6 0 33.7-15.1 33.7-33.7V217.5c0-18.6-15.1-33.7-33.7-33.7zM177.6 361.2c-3.8.7-6.6 4-6.6 7.9v33.1c0 .2 0 .4-.3.5-.3.1-.4 0-.6-.1L130.6 363a8.24 8.24 0 0 0-4.1-2.2c-33.1-6.6-62.5-25.1-82.9-52.2-20.8-27.7-30.3-62.1-26.8-96.9 3.1-30.7 17-59.9 39.1-82.2C78 107.1 107 93 137.7 89.6c5.3-.6 10.6-.9 15.9-.9 33.9 0 65.9 12.2 91.4 35 29.1 26 45.8 63.3 45.8 102.4-.1 66.6-47.6 123.4-113.2 135.1zM496 371.4c0 9.7-7.9 17.6-17.6 17.6H341.5c-4.4 0-8 3.6-8 8v23.4l-29.1-29.1c-1.5-1.5-3.5-2.3-5.7-2.3h-59.9c-9.7 0-17.6-7.9-17.6-17.6v-7.8c51.3-25.2 85.5-77.9 85.5-137.5 0-8.9-.8-17.6-2.3-26.2h173.8c9.7 0 17.6 7.9 17.6 17.6l.2 153.9z"/><path d="M449.8 246c-3.1-3.1-8.2-3.1-11.3 0l-79.8 79.8-37.1-37.1c-3.1-3.1-8.2-3.1-11.3 0-3.1 3.1-3.1 8.2 0 11.3l42.7 42.7c1.6 1.6 3.6 2.3 5.7 2.3s4.1-.8 5.7-2.3l85.5-85.5c3-3 3-8-.1-11.2zm-296.4 40.5c-4.4 0-8 3.6-8 8s3.6 8 8 8 8-3.6 8-8-3.6-8-8-8zm35.7-121.8c-9.7-9.7-22.4-15.1-35.7-15.1-28 0-50.8 22.8-50.8 50.8 0 4.4 3.6 8 8 8s8-3.6 8-8c0-19.2 15.6-34.7 34.7-34.7 9 0 17.7 3.7 24.4 10.4s10.4 15.3 10.4 24.4c0 15.2-10.2 28.9-24.7 33.3-10.8 3.2-18 12.9-18 24v2.6c0 4.4 3.6 8 8 8s8-3.6 8-8v-2.6c0-4 2.6-7.5 6.6-8.7 21.3-6.4 36.2-26.4 36.2-48.6 0-13.4-5.4-26.1-15.1-35.8z"/></svg>