<svg version="1.1" id="Layer_1" xmlns="http://www.w3.org/2000/svg" x="0" y="0" viewBox="0 0 436.4 445.5" xml:space="preserve"><style>.st0{fill:#231f20}</style><path class="st0" d="M298.5 198.9c-7.5 0-18.8-1-19.1-3.8-.1-.8.5-2.1 6.6-3.4.3 0 .5.1.6.4.1.3-.1.5-.4.6-5.9 1.3-5.8 2.3-5.8 2.3.1 1.1 6.3 2.9 18.1 2.9s18-1.9 18.1-2.9c0 0 0-1.1-5.6-2.3-.3-.1-.4-.3-.4-.6.1-.3.3-.4.6-.4 4.5 1 6.5 2.1 6.4 3.4-.3 2.7-11.6 3.8-19.1 3.8zm0 16.1c-8.8 0-21.9-1.2-21.9-4.5 0-.3.2-.5.5-.5s.5.2.5.5c0 .5 1.2 1.5 5.9 2.3 4 .7 9.4 1.2 15.1 1.2s11-.4 15.1-1.2c4.6-.9 5.9-1.9 5.9-2.3 0-.3.2-.5.5-.5s.5.2.5.5c-.1 3.3-13.2 4.5-22.1 4.5zm0-8.2c-7.7 0-19.1-1.1-19.1-4 0-.3.2-.5.5-.5s.5.2.5.5c0 1 6.2 3 18.1 3 11.9 0 18.1-1.9 18.1-3 0-.3.2-.5.5-.5s.5.2.5.5c0 2.9-11.4 4-19.1 4z"/><path class="st0" d="M317.1 210c-.3 0-.5-.2-.5-.5v-14.6c0-.3.2-.5.5-.5s.5.2.5.5v14.6c0 .3-.2.5-.5.5zm-37.2 0c-.3 0-.5-.2-.5-.5v-14.6c0-.3.2-.5.5-.5s.5.2.5.5v14.6c0 .3-.2.5-.5.5zm21.1-14.9c-.3 0-.5-.2-.5-.5v-8.3c0-.7-.3-1.1-1.9-1.1-1.6 0-1.9.4-1.9 1.1v8.3c0 .3-.2.5-.5.5s-.5-.2-.5-.5v-8.3c0-2.1 2.1-2.1 2.9-2.1.9 0 2.9 0 2.9 2.1v8.3c0 .3-.2.5-.5.5zm7.7 0c-.3 0-.5-.2-.5-.5v-8.3c0-.7-.3-1.1-1.9-1.1-1.6 0-1.9.4-1.9 1.1v8.3c0 .3-.2.5-.5.5s-.5-.2-.5-.5v-8.3c0-2.1 2.1-2.1 2.9-2.1.9 0 2.9 0 2.9 2.1v8.3c0 .3-.2.5-.5.5zm-15.5 0c-.3 0-.5-.2-.5-.5v-8.3c0-.7-.3-1.1-1.9-1.1-1.6 0-1.9.4-1.9 1.1v8.3c0 .3-.2.5-.5.5s-.5-.2-.5-.5v-8.3c0-2.1 2.1-2.1 2.9-2.1.9 0 2.9 0 2.9 2.1v8.3c0 .3-.2.5-.5.5zm5.3 30.5c-2 0-6.7-.2-6.7-2.1v-7.2c0-.3.2-.5.5-.5s.5.2.5.5v7.2c0 .3 1.4 1.1 5.7 1.1 4.3 0 5.7-.8 5.7-1.1v-7.2c0-.3.2-.5.5-.5s.5.2.5.5v7.2c0 1.9-4.7 2.1-6.7 2.1z"/></svg>