<svg version="1.1" id="Layer_1" xmlns="http://www.w3.org/2000/svg" x="0" y="0" viewBox="0 0 436.4 445.5" xml:space="preserve"><style>.st0{fill:#231f20}</style><path class="st0" d="M389.1 136.3c-.3 0-.5-.2-.5-.5v-26.4c0-6 2.1-10.6 4.9-10.6 2.7 0 4.9 4.7 4.9 10.6 0 5.2-1.6 9.5-3.9 10.5-.8.3-1.9.4-3.3-1-.2-.2-.2-.5 0-.7.2-.2.5-.2.7 0 .7.8 1.5 1 2.2.7 1.9-.8 3.3-4.9 3.3-9.5 0-5.8-2-9.6-3.9-9.6s-3.9 3.9-3.9 9.6v26.4c0 .3-.2.5-.5.5z"/><path class="st0" d="M392.6 116.6h-.1c-.3-.1-.4-.4-.3-.6 1.5-5.2 1-10.1 0-12.9-.1-.3 0-.5.3-.6.3-.1.5 0 .6.3 1.1 3 1.6 8.1.1 13.6-.2.1-.4.2-.6.2zm-7.7 3.4c-2.7 0-4.9-4.7-4.9-10.6 0-6 2.1-10.6 4.9-10.6.3 0 .5.2.5.5s-.2.5-.5.5c-1.9 0-3.9 3.9-3.9 9.6 0 5.8 2 9.6 3.9 9.6.3 0 .5.2.5.5s-.2.5-.5.5z"/><path class="st0" d="M380.7 120c-2.7 0-4.9-4.7-4.9-10.6 0-6 2.1-10.6 4.9-10.6.3 0 .5.2.5.5s-.2.5-.5.5c-1.9 0-3.9 3.9-3.9 9.6 0 5.8 2 9.6 3.9 9.6.3 0 .5.2.5.5s-.3.5-.5.5zm6.2-1.5c-.2 0-.3-.1-.4-.2-1.3-2-2.1-5.3-2.1-8.9 0-6 2.1-10.6 4.9-10.6.3 0 .5.2.5.5s-.2.5-.5.5c-1.9 0-3.9 3.9-3.9 9.6 0 3.4.7 6.5 1.9 8.3.2.2.1.5-.1.7-.1 0-.2.1-.3.1zm-23.4 17.8c-.3 0-.5-.2-.5-.5v-26.4c0-6 2.1-10.6 4.9-10.6.3 0 .5.2.5.5s-.2.5-.5.5c-1.9 0-3.9 3.9-3.9 9.6v26.4c0 .3-.2.5-.5.5z"/><path class="st0" d="M376.4 120c-2.7 0-4.9-4.7-4.9-10.6 0-6 2.1-10.6 4.9-10.6.3 0 .5.2.5.5s-.2.5-.5.5c-1.9 0-3.9 3.9-3.9 9.6 0 5.8 2 9.6 3.9 9.6.3 0 .5.2.5.5s-.3.5-.5.5z"/><path class="st0" d="M372.1 120c-2.7 0-4.9-4.7-4.9-10.6 0-6 2.1-10.6 4.9-10.6.3 0 .5.2.5.5s-.2.5-.5.5c-1.9 0-3.9 3.9-3.9 9.6 0 5.8 2 9.6 3.9 9.6.3 0 .5.2.5.5s-.2.5-.5.5z"/></svg>