<svg version="1.1" id="Layer_1" xmlns="http://www.w3.org/2000/svg" x="0" y="0" viewBox="0 0 300 300" xml:space="preserve"><path d="M150 0C67.2 0 0 67.2 0 150s67.2 150 150 150 150-67.2 150-150S232.8 0 150 0zm10.4 168.3c0 .4-.1.8-.1 1.2 0 .3-.1.6-.1.9l-.3.9c-.1.4-.2.7-.4 1.1 0 .1 0 .1-.1.2-.2.5-.5.9-.8 1.4 0 0 0 .1-.1.1-.3.5-.7.9-1.1 1.3l-.3.3c-.3.3-.7.6-1.1.9-.1.1-.2.2-.4.3-.5.3-1 .6-1.6.8-.1.1-.2.1-.4.1-.5.2-.9.3-1.4.4-.2 0-.3.1-.5.1-.6.1-1.2.2-1.9.2h-.4c-.6 0-1.2-.1-1.8-.2-.2 0-.4-.1-.5-.2-.5-.1-1.1-.3-1.6-.5-.1 0-.1 0-.2-.1l-57.5-27.1c-5.2-2.4-7.4-8.6-5-13.8 2.4-5.2 8.6-7.4 13.8-5l42.7 20.1V62.2c0-5.7 4.6-10.4 10.4-10.4s10.4 4.6 10.4 10.4v105.9c.3.1.3.2.3.2z"/></svg>