<svg xmlns="http://www.w3.org/2000/svg" width="35" height="40"><defs><linearGradient id="zjo3a" x1="17.35" x2="17.35" y1="0" y2="39.95" gradientUnits="userSpaceOnUse"><stop offset="0" stop-color="#ff4e00"/><stop offset="1" stop-color="#ff9100"/></linearGradient></defs><path fill="url(#zjo3a)" d="M9.765 39.952c-2.663-5.54-1.245-8.715.802-11.707 2.24-3.275 2.818-6.518 2.818-6.518s1.762 2.29 1.057 5.872c3.113-3.464 3.7-8.984 3.23-11.098 7.035 4.916 10.042 15.561 5.99 23.45 21.55-12.193 5.36-30.438 2.542-32.493.94 2.055 1.117 5.534-.78 7.223C22.21 2.497 14.265 0 14.265 0c.94 6.282-3.406 13.153-7.596 18.287-.147-2.506-.304-4.235-1.621-6.632-.296 4.551-3.774 8.261-4.716 12.821-1.276 6.176.956 10.698 9.432 15.475z"/></svg>