<svg xmlns="http://www.w3.org/2000/svg" width="92" height="92"><defs><mask id="9kpdb" width="2" height="2" x="-1" y="-1"><path fill="#fff" d="M10 7h72v72H10z"/><path d="M10 43C10 23.118 26.118 7 46 7s36 16.118 36 36-16.118 36-36 36-36-16.118-36-36z"/></mask><filter id="9kpda" width="116" height="119" x="-12" y="-15" filterUnits="userSpaceOnUse"><feOffset dy="3" in="SourceGraphic" result="FeOffset1023Out"/><feGaussianBlur in="FeOffset1023Out" result="FeGaussianBlur1024Out" stdDeviation="4.8 4.8"/></filter></defs><g filter="url(#9kpda)"><path fill="none" d="M10 43C10 23.118 26.118 7 46 7s36 16.118 36 36-16.118 36-36 36-36-16.118-36-36z" mask="url(&quot;#9kpdb&quot;)"/><path fill-opacity=".4" d="M10 43C10 23.118 26.118 7 46 7s36 16.118 36 36-16.118 36-36 36-36-16.118-36-36z"/></g><path fill="red" d="M10 43C10 23.118 26.118 7 46 7s36 16.118 36 36-16.118 36-36 36-36-16.118-36-36z"/><path fill="#fff" d="M58.2 43.542L37.832 55.864c-.43.267-.994-.06-.994-.58V30.642c0-.52.549-.846.994-.579L58.2 42.384c.43.252.43.906 0 1.158zM45.76 12.085c-17.058 0-30.879 13.82-30.879 30.878 0 17.057 13.821 30.878 30.879 30.878 17.057 0 30.878-13.82 30.878-30.878 0-17.057-13.821-30.878-30.878-30.878z"/></svg>