<svg xmlns="http://www.w3.org/2000/svg" viewBox="0 0 485.66 371.18"><path d="M424.5 58.64v203.48a25.42 25.42 0 0 1-25.42 25.42h-52.51a44.14 44.14 0 0 0 8-25.42h38.17a6.35 6.35 0 0 0 6.34-6.34V65a6.3 6.3 0 0 0-6.34-6.34H87.49A6.35 6.35 0 0 0 81.15 65v190.8a6.35 6.35 0 0 0 6.34 6.34h178.05a44.53 44.53 0 0 0 8 25.42H81.15a25.42 25.42 0 0 1-25.43-25.42V58.64a25.42 25.42 0 0 1 25.43-25.42h317.93a25.42 25.42 0 0 1 25.42 25.42z" fill="#ef7a84"/><path d="M399.08 65v190.8a6.3 6.3 0 0 1-6.34 6.34h-38.17a44.52 44.52 0 0 0-89 0h-178a6.35 6.35 0 0 1-6.34-6.34V65a6.35 6.35 0 0 1 6.34-6.34h305.1a6.41 6.41 0 0 1 6.41 6.34z" fill="#f5ddc1"/><path d="M310.05 217.61a44.49 44.49 0 0 0-36.52 69.93 43.46 43.46 0 0 0 4.69 5.69 44.36 44.36 0 0 0 62.73.87l.87-.87a35.36 35.36 0 0 0 4.68-5.69 44.51 44.51 0 0 0-36.45-69.93zm0 69.93a25.43 25.43 0 1 1 25.43-25.42 25.42 25.42 0 0 1-25.43 25.42z" fill="#c73131"/><path d="M335.48 262.12a25.43 25.43 0 1 1-25.43-25.43 25.42 25.42 0 0 1 25.43 25.43z" fill="#ffc96f"/><path d="M278.29 293.23v51.58l31.76-12.75 31.77 12.75v-51.58a44.37 44.37 0 0 1-62.74.87c-.29-.36-.58-.58-.79-.87z" fill="#d84242"/><path d="M176.51 103.15h127.2v12.75h-127.2zM138.41 154h203.48v12.74H138.41z" fill="#f4f4f4"/></svg>