<svg xmlns="http://www.w3.org/2000/svg" viewBox="0 0 485.66 371.18"><defs><style>.c{fill:#db7180}.e{fill:#230a18}</style></defs><path d="M208.41 57.48a53 53 0 0 0-37 1.68L20.53 124l440.57 16.8zM19.53 171.2v132.6a19.3 19.3 0 0 0 21.87 19.13l406.2 23.41a22.76 22.76 0 0 0 19.73-22.56V146l-447.8-16z" fill="#f7dfc3"/><path d="M21.53 123l149.91-63.84a53 53 0 0 1 37-1.68l252.66 82.07z" fill="#f27a86"/><path class="c" d="M19.53 126.6v44.6l447.8 17.8v-43a6.49 6.49 0 0 0-6.23-6.48l-437-17.37a4.42 4.42 0 0 0-4.57 4.45z"/><path fill="#ffe8e6" d="M19.53 169.2v109.25l447.8 17.81V187.01L19.53 169.2z"/><ellipse class="c" cx="238.79" cy="114.86" rx="25.56" ry="9.6"/><path class="e" d="M245.74 240.63a16.13 16.13 0 0 1 8 2.14v-5a5.46 5.46 0 0 0-5.46-5.46h-18.73a5 5 0 0 0-5.05 5.05v9.6a14.59 14.59 0 0 0 5 11c0-.32-.05-.63-.05-1a16.32 16.32 0 0 1 16.29-16.33z"/><path d="M239.15 261.58a14.63 14.63 0 0 0 14.64-14.64v-4.17a16.13 16.13 0 0 0-8-2.14A16.32 16.32 0 0 0 229.42 257c0 .33 0 .64.05 1a14.56 14.56 0 0 0 9.68 3.67z" fill="#9a164c"/><path class="e" d="M183.15 227.88c.6-13.43 20.25-13.46 20.86 0 .24 5.45 8.75 5.48 8.5 0-.46-10.27-8.3-18.93-18.93-18.93s-18.48 8.66-18.94 18.93c-.24 5.47 8.26 5.46 8.51 0zm89.85 0c.6-13.43 20.26-13.46 20.86 0 .25 5.45 8.75 5.48 8.51 0-.47-10.27-8.31-18.93-18.94-18.93s-18.47 8.66-18.93 18.93c-.25 5.47 8.25 5.46 8.5 0z"/><circle cx="238.15" cy="81.55" r="34.91" fill="#c93131"/><path d="M219.05 17c-1.33 9.36 2.7 17 7.61 24.59 2.72 4.22 2.68 5.28 5.45 9.47 1.48 2.24 4.25 5.83 4.39 8.26.3 5.45 8.81 5.48 8.5 0-.41-7.38-6.67-14.2-10.65-20-4.27-6.26-12.26-15.85-11.1-24 .76-5.35-3.44-3.66-4.2 1.74z" fill="#891300"/><path d="M253.6 59.73c3.42 2.47-5.61 7.65-12.52 7.65S225 62 228.55 59.73c2.31-1.46 5.61 2.11 12.53 2.11s9.57-4.24 12.52-2.11z" fill="#b22d2d"/></svg>