<svg xmlns="http://www.w3.org/2000/svg" viewBox="0 0 485.66 371.18"><defs><style>.a{fill:#ff7b87}.b{fill:#f37281}</style></defs><path class="a" d="M98.93 115.58l151.38 75.69 151.39-75.69v161.47l-151.39 75.69-151.38-75.69z"/><path class="b" d="M98.93 130.71v47.18l150.88 73.93 151.89-74.18v-46.93l-151.39 74.18z"/><path class="a" d="M250.31 352.74V191.27L109 120.62H98.93v156.43z"/><path class="b" d="M98.93 130.71v47.18l150.88 73.93.5-.25v-46.68z"/><path class="a" d="M88.84 110.28l161.47-80.49 161.48 80.49v10.59l-161.48 80.49-161.47-80.23z"/><path d="M88.84 110.53l161.47 79 161.48-79v52.23l-162 79-161-79z" fill="#d16776"/><path d="M310.87 166.79V161l-60.56-32.8-60.55 32.8v5.8l-40.37-17.66v-8.07l98.91-52.24 2 1 2-1 98.91 52v8.07z" fill="#fff"/><path d="M310.87 161v161.22L351.24 302V140.81zM149.39 302.28l40.37 20.19V161.24l-40.37-20.43zM342.91 55.27c-5.3-9.58-16.65-15.39-30-15.39-30.53 0-52 28.51-62.58 46.68-10.61-18.17-32.33-46.42-62.59-46.42-19.43 0-33.3 11.85-33.3 28 0 28.76 31.54 47.44 94.86 47.44s96.89-24 96.89-47.19a26.67 26.67 0 0 0-3.28-13.12zm-148.61 31c-7.06-4.8-9.59-10.09-9.59-13.63 0-4.29 4-7.57 9.84-7.57 13.63 0 24.48 17.92 30.53 30.28-15.89-1.22-25.23-5.51-30.78-9.04zm112 0c-5.56 3.53-14.89 7.82-30.79 9.08 5.84-12.35 16.69-30.24 30.56-30.24 5.81 0 9.84 3.28 9.84 7.57 0 3.54-2.52 8.83-9.58 13.63z" fill="#e8e8e8"/></svg>