<svg xmlns="http://www.w3.org/2000/svg" viewBox="0 0 485.66 371.18"><defs><style>.c{fill:#f27a86}.d{fill:#230a18}</style></defs><path d="M336.39 308.38c-4.5 17.61-38.34 34.42-93 34.42s-86.24-16.92-91-34.42c-13.77-50.2-21-89.29-12-102.44 18.8-27.37 73.49 30.26 108 14.12 72.84-34.08 99.91-35.59 107.31-7.85 8.83 33.32-16.7 85.79-19.31 96.17z" fill="#fec679"/><path d="M359 204.31c0 6.7-11.32 9.54-20.58 15-6 3.52-10.5 13.95-19.46 16.62-7.2 2.14-17-3.81-25.71-2.36-7.66 1.28-14.85 10.2-23.39 10.85-7.88.61-16.39-7.06-24.82-7.06s-16.93 7.67-24.82 7.06c-8.53-.65-15.73-9.57-23.38-10.85-8.69-1.45-18.52 4.5-25.72 2.36-9-2.67-13.46-13.1-19.46-16.62-9.26-5.42-20.58-8.26-20.58-15s11.32-9.54 20.58-15c6-3.51 10.5-13.95 19.47-16.62 7.19-2.13 17 3.82 25.71 2.37 7.65-1.28 14.84-10.21 23.38-10.86 7.88-.6 16.4 7.06 24.82 7.06s16.94-7.66 24.82-7.06c8.54.65 15.73 9.58 23.39 10.86 8.68 1.45 18.52-4.5 25.71-2.36 9 2.66 13.47 13.1 19.47 16.61 9.27 5.46 20.57 8.3 20.57 15z" fill="#f7dfc3"/><path class="c" d="M355 164.13c8.13 40.07-49.33 58.37-110.18 58.37s-117.33-23.73-110.18-58.37c9.7-47 49.33 0 110.18 0s101.45-43.13 110.18 0z"/><path class="c" d="M339.78 120.2c16.7 35.72-39.19 56.11-91.12 56.11s-106.84-16.38-94-50.23c12.53-33.08 42.09 0 94 0s76.82-36.47 91.12-5.88z"/><path class="c" d="M316.63 95.19c.1 29.57-29 40.17-68.48 40.17s-74.66-10.6-74.55-40.17c.15-45.73 62.87-13.73 53-58-9.54-43.13 89.89 15.24 90.03 58z"/><path class="d" d="M252.29 214a16.16 16.16 0 0 1 8 2.14V210a4.33 4.33 0 0 0-4.33-4.33h-20.62a4.29 4.29 0 0 0-4.29 4.29v10.34a14.59 14.59 0 0 0 5 11c0-.32-.05-.63-.05-1a16.33 16.33 0 0 1 16.29-16.3z"/><path d="M245.7 234.94a14.64 14.64 0 0 0 14.64-14.64v-4.17a16.16 16.16 0 0 0-8-2.14A16.33 16.33 0 0 0 236 230.32c0 .32 0 .63.05 1a14.56 14.56 0 0 0 9.68 3.67z" fill="#9a164c"/><path class="d" d="M189.69 201.24c.61-13.43 20.26-13.46 20.87 0 .24 5.45 8.75 5.48 8.5 0-.46-10.27-8.3-18.93-18.93-18.93s-18.48 8.66-18.94 18.93c-.25 5.47 8.26 5.46 8.5 0zm89.88 0c.6-13.43 20.26-13.46 20.86 0 .25 5.45 8.75 5.48 8.5 0-.46-10.27-8.3-18.93-18.93-18.93s-18.47 8.66-18.94 18.93c-.24 5.47 8.26 5.46 8.51 0z"/><path d="M184.61 134.05c1.56 2.55 3.12 5.32 5.38 7.34s5.13 3.42 7.83 4.87c4.82 2.58 9.12-4.76 4.29-7.35-1.4-.75-2.81-1.47-4.18-2.27-.49-.29-1-.59-1.46-.9-.69-.45.29.33-.47-.36-1.72-1.56-2.6-3.25-4.05-5.63-2.84-4.66-10.19-.4-7.34 4.3zm113.3-31.78a30.67 30.67 0 0 0-5-7.64c-2.15-2.17-5-3.7-7.54-5.3-4.66-2.9-8.94 4.45-4.29 7.34a41.12 41.12 0 0 1 5.82 4c.13.11 1 1.08.42.4a13.16 13.16 0 0 1 .94 1.4c.83 1.33 1.54 2.73 2.26 4.11 2.54 4.85 9.89.56 7.35-4.29z" fill="#ffed83"/><path d="M207.31 77.3c-.52 3-1.2 6.07-.9 9.11s1.53 6 2.61 8.89c1.89 5.08 10.11 2.88 8.2-2.26-.82-2.2-2-4.58-2.33-6.91-.32-2.14.25-4.47.62-6.57 1-5.35-7.25-7.65-8.2-2.26zm60.55 70.45c.71-2.92 1.57-6 1.42-9s-1.23-6.09-2.11-9c-1.57-5.23-9.78-3-8.2 2.26a35.6 35.6 0 0 1 1.8 6.77c.2 2.28-.58 4.6-1.11 6.78-1.29 5.32 6.91 7.59 8.2 2.26z" fill="#ff5050"/></svg>