<svg xmlns="http://www.w3.org/2000/svg" viewBox="0 0 485.66 371.18"><defs><style>.b{fill:#1f191a;opacity:.15;isolation:isolate}.e{fill:#c73131}</style></defs><path d="M412.77 45.42H75.36a20.67 20.67 0 0 0-20.63 20.64v236.59h378.68V66a20.6 20.6 0 0 0-20.64-20.58z" fill="#ef7a84"/><path class="b" d="M90.36 45.42h-15a20.67 20.67 0 0 0-20.63 20.64v236.59h15V66a20.6 20.6 0 0 1 20.63-20.58z"/><path d="M405.11 312.92a11.29 11.29 0 0 1-11.29 11.29H94.23a11.29 11.29 0 0 1-11.29-11.29V86a11.3 11.3 0 0 1 11.29-11.27h299.59A11.3 11.3 0 0 1 405.11 86z" fill="#f5ddc1"/><path d="M393.91 74.73H117.22v28h287.89V85.94a11.26 11.26 0 0 0-11.2-11.21z" fill="#f4f4f4"/><path class="e" d="M122.19 102.78v-28h-28A11.29 11.29 0 0 0 82.94 86.1v16.76h39.25z"/><path class="b" d="M97.85 312.92V86a11.3 11.3 0 0 1 11.29-11.29H94.23A11.3 11.3 0 0 0 82.94 86v226.9a11.29 11.29 0 0 0 11.29 11.29h14.82a11.27 11.27 0 0 1-11.2-11.27z"/><path d="M453.12 297.85H35a6.58 6.58 0 0 0-6.57 6.57V318a22.22 22.22 0 0 0 22.24 22.23h386.78A22.22 22.22 0 0 0 459.69 318v-13.58a6.58 6.58 0 0 0-6.57-6.57z" fill="#d97180"/><path d="M182.16 297.85v9.94a11.29 11.29 0 0 0 11.29 11.28h101.41a11.28 11.28 0 0 0 11.28-11.28v-9.94z" fill="#eae9e8"/><path class="e" d="M227.81 229.37v-64.94l32.51 32.51-32.51 32.43z"/></svg>