<svg xmlns="http://www.w3.org/2000/svg" viewBox="0 0 485.66 371.18"><defs><style>.a{fill:#f5ddc1}.b{fill:#ffc9a2}.c{fill:#ffb781}.d{fill:#ffe6e4}.f{fill:#ffc091}.i{fill:#ef7a84}</style></defs><path class="a" d="M319.31 227.63H157.16L154 200.18a81.54 81.54 0 0 1 6.66-42.82 81.43 81.43 0 0 0 7.09-37.66l-1-19.1c-1.95-37.66 28.45-69.66 68-71.52 1.16-.07 2.39-.07 3.55-.07 39.52 0 71.59 30.55 71.59 68.21 0 1.1 0 2.27-.08 3.38l-1 19.1a81.44 81.44 0 0 0 7.1 37.66 81.31 81.31 0 0 1 6.65 42.82z"/><path class="b" d="M296.15 205.56v55.17H180.33v-55.17H207a7.91 7.91 0 0 0 8.1-7.72v-36.42h46.3v36.42a7.91 7.91 0 0 0 8.11 7.72h26.64z"/><path class="c" d="M261.4 161.42v22.42a54.51 54.51 0 0 1-46.33 0v-22.42z"/><path class="d" d="M330.89 233.15v38.62h-40.53V349H186.12v-93.78l-11.58 16.55-34.75-27.59L153 222.25a35 35 0 0 1 30.18-16.69h14.52c8.76 13.24 24.11 21.24 40.54 21.17a49.93 49.93 0 0 0 22.58-5.31 46.91 46.91 0 0 0 17.95-15.86h23.17c16 0 28.95 12.35 28.95 27.59z"/><path d="M290.36 277.29a5.69 5.69 0 0 1-5.8-5.52V249.7a5.8 5.8 0 0 1 11.59 0v22.07a5.68 5.68 0 0 1-5.79 5.52z" fill="#fa8080"/><path class="c" d="M310.62 349c-11.22 0-20.26-8.62-20.26-19.31v-57.92h40.53v57.93c0 10.69-9.05 19.3-20.27 19.3z"/><path class="b" d="M290.36 100.73v27.59c0 27.45-23.31 49.66-52.12 49.66a46.6 46.6 0 0 1-7-.49c-25.85-3.31-45.1-24.34-45.1-49.17v-27.59a76.75 76.75 0 0 0 26.71-28.82l2.24-4.28 3.26 2.62a146.54 146.54 0 0 0 39.6 22.35 153.17 153.17 0 0 0 32.41 8.13z"/><path class="f" d="M290.36 100.73v27.59c0 27.45-23.31 49.66-52.12 49.66a46.6 46.6 0 0 1-7-.49c17.44-10.41 27.94-28.62 27.94-48.2V104a56.5 56.5 0 0 0-1.23-11.52 145.43 145.43 0 0 0 32.41 8.25z"/><path d="M212.18 122.8a8.28 8.28 0 1 1 8.68-8.27 8.51 8.51 0 0 1-8.68 8.27zm52.12 0a8.28 8.28 0 1 1 8.68-8.27 8.51 8.51 0 0 1-8.68 8.27z" fill="#230a18"/><path class="c" d="M139.79 244.18l-34.74 60.69 23.16 27.59 46.33-60.69z"/><path class="d" d="M330.89 233.15v38.62h-40.53V349H186.12v-68.27c45.6-15 88.17-38.82 122.77-74.34 12.88 3 22 14.07 22 26.76z"/><path d="M300.85 282.8a41.73 41.73 0 0 1-10.49 27.59V349H186.12v-38.61a41.86 41.86 0 0 1-10.5-26.39v-1.2a42.09 42.09 0 0 1 16.29-33.1h92.65a42.26 42.26 0 0 1 16.29 33.1z" fill="#d97180"/><path class="i" d="M300.85 282.8a41.73 41.73 0 0 1-10.49 27.59V349H186.12v-38.61a41.86 41.86 0 0 1-10.5-26.39c27.51-8.21 54-19.38 78.54-34.28h30.4a42.26 42.26 0 0 1 16.29 33.08z"/><path class="d" d="M231.07 144.87h-4.41v-11h4.41a51.14 51.14 0 0 0 21.93-5l5.22 9.86a62.61 62.61 0 0 1-27.15 6.14z"/><path class="i" d="M193.07 260.8a5.67 5.67 0 0 1-5.79-5.51v-.62l4.7-55.25a5.7 5.7 0 0 1 6.3-5 5.58 5.58 0 0 1 5.21 6v.21l-4.63 55.24a5.82 5.82 0 0 1-5.79 4.93zm91.49 1.93a5.63 5.63 0 0 1-5.71-4.89l-5.79-57.17a5.57 5.57 0 0 1 5.21-6 5.77 5.77 0 0 1 6.29 4.82l5.8 57.11a5.59 5.59 0 0 1-5.14 6.07 2.46 2.46 0 0 1-.66.06z"/><path class="f" d="M113.73 349c-11.22 0-20.27-8.62-20.27-19.31v-69h29l11.29 64.63a15.39 15.39 0 0 1 .29 3.17v1.17C134 340.39 125 349 113.73 349z"/><path class="a" d="M87.67 106.25v24.9a32.36 32.36 0 0 0 10.21 23.38l7.17 6.89v110.35c0 6.07 5.21 11 11.58 11s11.58-5 11.58-11V161.42l7.17-6.82a32.35 32.35 0 0 0 10.2-23.38v-25z"/><path class="b" d="M93.46 216.6h34.75c6.37 0 11.58 5 11.58 11v22.1c0 6.07-5.21 11-11.58 11H93.46v-44.1z"/><path class="d" d="M290.36 249.7h115.81c0 12.21-10.35 22.07-23.16 22.07h-69.49c-12.81 0-23.16-9.86-23.16-22.07z"/><path class="b" d="M388.8 271.77h-57.91l-36 44.07a19.8 19.8 0 0 0-4.56 12.62c0 11.31 9.62 20.55 21.57 20.55h.5a21.74 21.74 0 0 0 18.82-10.55l26.14-44.62h8.25c12.81 0 23.16-9.86 23.16-22.07z"/><path class="a" d="M313.52 227.63H383c6.37 0 11.58 5 11.58 11 0 6.06-5.21 11-11.58 11h-69.48c-6.37 0-11.58-5-11.58-11 0-6.03 5.21-11 11.58-11zm0-22.07H383c6.37 0 11.58 5 11.58 11 0 6.07-5.21 11-11.58 11h-69.48c-6.37 0-11.58-5-11.58-11 0-6.03 5.21-11 11.58-11zm0-22.07H383c6.37 0 11.58 5 11.58 11 0 6.07-5.21 11-11.58 11h-69.48c-6.37 0-11.58-5-11.58-11 0-6.03 5.21-11 11.58-11z"/><path d="M354.06 161.42h-11.59A23.23 23.23 0 0 1 356 140.53l1.23-.55 5.21 9.86-1.23.55a12.21 12.21 0 0 0-7.15 11.03z" fill="#881300"/><ellipse cx="348.26" cy="172.46" rx="17.37" ry="16.55" fill="#c73131"/><path class="i" d="M348.26 183.49H325.1v33.11c0 6.07 5.21 11 11.58 11s11.58-5 11.58-11v-16.55c0 6.06 5.22 11 11.59 11s11.58-5 11.58-11v-16.56z"/></svg>