<svg xmlns="http://www.w3.org/2000/svg" viewBox="0 0 485.66 371.18"><defs><style>.a{fill:#f5ddc1}.b{fill:#ef7a84}.c{fill:#ffe6e4}</style></defs><path class="a" d="M385.54 115.32v213a10.68 10.68 0 1 1-21.36 0v-213z"/><path class="b" d="M305.6 51.43H135.22V339h170.44a10.74 10.74 0 0 0 10.68-10.68V62.11a10.75 10.75 0 0 0-10.74-10.68zm-37.23 154.45h-64l-2.65-21.3H271z"/><path class="a" d="M145.84 51.43V339h-21.3a21.29 21.29 0 0 1-21.29-21.3v-245a21.29 21.29 0 0 1 21.29-21.3z"/><path class="c" d="M135.22 83.4h21.3a5.31 5.31 0 1 0 0-10.61h-21.3a5.31 5.31 0 1 0 0 10.61zm21.3 10.6h-21.3a5.31 5.31 0 0 0 0 10.62h21.3a5.31 5.31 0 0 0 0-10.62zm0 21.32h-21.3a5.31 5.31 0 0 0 0 10.62h21.3a5.31 5.31 0 0 0 0-10.62zm0 21.36h-21.3a5.31 5.31 0 0 0 0 10.62h21.3a5.31 5.31 0 0 0 0-10.62zm0 21.32h-21.3a5.31 5.31 0 1 0 0 10.61h21.3a5.31 5.31 0 1 0 0-10.61zm0 21.27h-21.3a5.31 5.31 0 0 0 0 10.62h21.3a5.31 5.31 0 0 0 0-10.62zm0 21.3h-21.3a5.31 5.31 0 0 0 0 10.62h21.3a5.31 5.31 0 0 0 0-10.62zm0 21.3h-21.3a5.31 5.31 0 1 0 0 10.62h21.3a5.31 5.31 0 1 0 0-10.62zm0 21.29h-21.3a5.31 5.31 0 0 0 0 10.62h21.3a5.31 5.31 0 0 0 0-10.62zm0 21.3h-21.3a5.31 5.31 0 1 0 0 10.62h21.3a5.31 5.31 0 1 0 0-10.62zm0 21.3h-21.3a5.31 5.31 0 0 0 0 10.62h21.3a5.31 5.31 0 0 0 0-10.62zm0 21.3h-21.3a5.31 5.31 0 1 0 0 10.61h21.3a5.31 5.31 0 1 0 0-10.61z"/><path d="M295 142a21.2 21.2 0 0 1-21.3 21.29l-2.7 21.29h-69.23l-2.66-21.3a21.3 21.3 0 0 1-.36-42.59h1.09a3.42 3.42 0 0 1 .78.06 37.27 37.27 0 1 1 71.44 0 3.42 3.42 0 0 1 .78-.06H274A21.27 21.27 0 0 1 295 142z" fill="#fff"/><path class="c" d="M271 184.58l-2.66 21.3h-64l-2.65-21.3z"/><path class="a" d="M183.13 248.47h10.67a5.31 5.31 0 0 0 0-10.62h-10.67a5.31 5.31 0 0 0 0 10.62zm31.97 0h74.57a5.31 5.31 0 1 0 0-10.62H215.1a5.31 5.31 0 0 0 0 10.62zm-21.3 31.98h-10.67a5.31 5.31 0 0 0 0 10.62h10.67a5.31 5.31 0 1 0 0-10.62zm95.87 0H215.1a5.31 5.31 0 1 0 0 10.62h74.57a5.31 5.31 0 1 0 0-10.62zm-106.54-10.68h53.27a5.31 5.31 0 0 0 0-10.62h-53.27a5.31 5.31 0 0 0 0 10.62zm106.54-10.62h-32a5.31 5.31 0 0 0 0 10.62h32a5.31 5.31 0 0 0 0-10.62z"/><path class="b" d="M412.15 83.4c0-29.44-16.72-53.27-37.29-53.27S337.58 54 337.58 83.4s16.71 53.28 37.28 53.28 37.29-23.89 37.29-53.28z"/><path d="M216.25 132.09a5.54 5.54 0 0 1-2.54.67 5.3 5.3 0 0 1-4.64-2.78 16.34 16.34 0 0 0-10.26-9.29h1.09a3.42 3.42 0 0 1 .78.06 38 38 0 0 1-1.57-10.68 2.5 2.5 0 0 1 .67.06 25.74 25.74 0 0 1 18.64 14.78 5.26 5.26 0 0 1-2.17 7.18zm57.75-11.4a16.35 16.35 0 0 0-10.27 9.31 5.23 5.23 0 0 1-7.18 2.11 5.26 5.26 0 0 1-2.55-3.21 5.17 5.17 0 0 1 .42-4.05A25.73 25.73 0 0 1 273 110.07a2.25 2.25 0 0 1 .66-.06 37.7 37.7 0 0 1-1.56 10.68 3.42 3.42 0 0 1 .78-.06H274z" fill="#e5e7e8"/></svg>