<svg xmlns="http://www.w3.org/2000/svg" viewBox="0 0 485.66 371.18"><defs><style>.f{fill:#fff}</style></defs><path d="M383.64 341.17h-278a42.67 42.67 0 0 1-42.55-42.55v-216a42.67 42.67 0 0 1 42.55-42.55h277.93a42.73 42.73 0 0 1 42.62 42.55v215.93a42.69 42.69 0 0 1-42.55 42.62z" fill="#ef7a84"/><path d="M426.19 107.07V82.61a42.67 42.67 0 0 0-42.55-42.55h-278a42.67 42.67 0 0 0-42.55 42.55v24.46z" fill="#230a18"/><circle cx="104.51" cy="73.53" r="9.5" fill="#ffe6e4"/><circle cx="131.6" cy="73.53" r="9.5" fill="#c73131"/><circle cx="158.76" cy="73.53" r="9.5" fill="#f5ddc1"/><path class="f" d="M367.61 70.9h21.56v4.82h-21.56z"/><path class="f" d="M382.86 87.85l-3.69-3.19 9.72-11.13-9.72-11.06 3.69-3.2 12.41 14.26-12.41 14.32zm-50.78.85H210.81a15.18 15.18 0 0 1-15.17-15.17 15.19 15.19 0 0 1 15.17-15.18H332a15.2 15.2 0 0 1 15.18 15.18 15.17 15.17 0 0 1-15.1 15.17z"/><path d="M213.93 80.83l-3.33-13.68h2.62l1.28 6.17c.35 1.63.64 3.4.92 4.75h.07c.21-1.42.64-3 1-4.75l1.51-6.17h2.63l1.37 6.31c.35 1.63.63 3.12.85 4.61h.07c.21-1.49.57-3 .92-4.75l1.42-6.17h2.55l-3.69 13.61h-2.69L220 74.31c-.35-1.56-.57-2.84-.78-4.33h-.07a34.25 34.25 0 0 1-.92 4.33l-1.56 6.45c-.04.07-2.74.07-2.74.07zm17.73 0l-3.33-13.68H231l1.28 6.17c.35 1.63.64 3.4.92 4.75h.07c.21-1.42.64-3 1-4.75l1.49-6.17h2.63l1.35 6.31c.35 1.63.63 3.12.85 4.61h.07c.21-1.49.56-3 .92-4.75l1.42-6.17h2.55l-3.75 13.61h-2.69l-1.42-6.45c-.36-1.56-.57-2.84-.78-4.33h-.07a34.25 34.25 0 0 1-.92 4.33l-1.56 6.45c0 .07-2.7.07-2.7.07zm17.8 0l-3.33-13.61h2.62l1.25 6.17c.35 1.63.64 3.4.92 4.75h.08c.21-1.42.64-3 1-4.75l1.49-6.17h2.63l1.35 6.31c.35 1.63.63 3.12.85 4.61h.07c.21-1.49.56-3 .92-4.75l1.42-6.17h2.55l-3.68 13.61h-2.69l-1.42-6.45c-.35-1.56-.57-2.84-.78-4.33h-.07a34.25 34.25 0 0 1-.92 4.33l-1.56 6.45zm13.69-1.42a1.55 1.55 0 0 1 1.56-1.63 1.51 1.51 0 0 1 1.56 1.63 1.56 1.56 0 1 1-3.12 0z"/><path class="f" d="M223.08 190.69l57.59 33.26-57.59 33.26v-66.52z"/><path class="f" d="M244.64 309.61A85.67 85.67 0 1 1 330.31 224a85.77 85.77 0 0 1-85.67 85.61zm0-161.62a76 76 0 1 0 75.95 76A76 76 0 0 0 244.64 148z"/></svg>